HIERARCHY
ROOT Hips
{
	OFFSET 0.00 0.00 0.00
	CHANNELS 6 Xposition Yposition Zposition Xrotation Yrotation Zrotation
	JOINT RightUpLeg
	{
		OFFSET -3.69398 0.00000 0.00000
		CHANNELS 3 Xrotation Yrotation Zrotation
		JOINT RightLeg
		{
			OFFSET 0.00000 -15.79567 0.00000
			CHANNELS 3 Xrotation Yrotation Zrotation
			JOINT RightFoot
			{
				OFFSET 0.00000 -14.76699 0.00000
				CHANNELS 3 Xrotation Yrotation Zrotation
				JOINT RightToeBase
				{
					OFFSET 0.00000 -1.28446 4.79369
					CHANNELS 3 Xrotation Yrotation Zrotation
					End Site
					{
						OFFSET 0.00000 0.00000 2.95275
					}
				}
			}
		}
	}
	JOINT LeftUpLeg
	{
		OFFSET 3.69398 0.00000 0.00000
		CHANNELS 3 Xrotation Yrotation Zrotation
		JOINT LeftLeg
		{
			OFFSET 0.00000 -15.79567 0.00000
			CHANNELS 3 Xrotation Yrotation Zrotation
			JOINT LeftFoot
			{
				OFFSET 0.00000 -14.76699 0.00000
				CHANNELS 3 Xrotation Yrotation Zrotation
				JOINT LeftToeBase
				{
					OFFSET 0.00000 -1.28446 4.79369
					CHANNELS 3 Xrotation Yrotation Zrotation
					End Site
					{
						OFFSET 0.00000 0.00000 2.95275
					}
				}
			}
		}
	}
	JOINT Spine
	{
		OFFSET 0.00000 2.39296 0.00000
		CHANNELS 3 Xrotation Yrotation Zrotation
		JOINT RightShoulder
		{
			OFFSET 0.00000 13.20741 0.00000
			CHANNELS 3 Xrotation Yrotation Zrotation
			JOINT RightArm
			{
				OFFSET -8.14047 0.00000 0.00000
				CHANNELS 3 Xrotation Yrotation Zrotation
				JOINT RightForeArm
				{
					OFFSET -10.64984 0.00000 0.00000
					CHANNELS 3 Yrotation Zrotation Xrotation
					JOINT RightHand
					{
						OFFSET -8.30462 0.00000 0.00000
						CHANNELS 3 Xrotation Yrotation Zrotation
						End Site
						{
							OFFSET -3.93700 0.00000 0.00000
						}
						JOINT RightHandThumb1
						{
							OFFSET 0.00000 0.00000 0.00000
							CHANNELS 3 Xrotation Zrotation Yrotation
							End Site
							{
								OFFSET 0.00000 0.00000 3.93700
							}
						}
					}
				}
			}
		}
		JOINT LeftShoulder
		{
			OFFSET 0.00000 13.20741 0.00000
			CHANNELS 3 Xrotation Yrotation Zrotation
			JOINT LeftArm
			{
				OFFSET 8.14047 0.00000 0.00000
				CHANNELS 3 Xrotation Yrotation Zrotation
				JOINT LeftForeArm
				{
					OFFSET 10.64984 0.00000 0.00000
					CHANNELS 3 Yrotation Zrotation Xrotation
					JOINT LeftHand
					{
						OFFSET 8.30462 0.00000 0.00000
						CHANNELS 3 Xrotation Yrotation Zrotation
						End Site
						{
							OFFSET 3.93700 0.00000 0.00000
						}
						JOINT LeftHandThumb1
						{
							OFFSET 0.00000 0.00000 0.00000
							CHANNELS 3 Xrotation Zrotation Yrotation
							End Site
							{
								OFFSET 0.00000 0.00000 3.93700
							}
						}
					}
				}
			}
		}
		JOINT Head
		{
			OFFSET 0.00000 19.25010 0.00000
			CHANNELS 3 Xrotation Yrotation Zrotation
			End Site
			{
				OFFSET 0.00000 4.52755 0.00000
			}
		}
	}
}
MOTION
Frames: 7
Frame Time: 0.008333
 -0.0707 5.7290 -1.2655 57.7919 18.6061 38.5192 -144.5886 39.0773 -59.0682 1.7230 -0.0000 -0.0000 41.6931 -27.3751 52.8894 -73.8963 -0.0000 -0.0000 -99.2927 42.7482 57.7545 -9.2869 0.0000 -0.0000 19.2686 -1.7808 22.3131 25.7785 -0.0000 -0.0000 -36.5379 27.1384 30.7838 -30.8582 9.4035 3.7046 8.8101 28.7406 100.7905 7.4744 0.0000 1.7649 -1.1654 2.1099 28.9239 32.8623 0.0000 -24.3270 -34.7034 -12.2522 61.9881 -98.2402 -42.7241 -37.0101 -38.9907 -0.0000 -19.3417 -0.3114 8.5877 2.0844 33.1476 -0.0000 26.2537 1.1322 -34.2815 79.8291
 -0.0706 5.7287 -1.2721 57.7588 18.6013 38.5150 -144.5806 39.0696 -59.0658 1.7201 -0.0000 -0.0000 41.7187 -27.3524 53.0749 -73.9710 -0.0000 -0.0000 -99.2696 42.7250 57.7333 -9.2691 -0.0000 -0.0000 19.2404 -1.7832 22.3171 25.7196 -0.0000 -0.0000 -36.5293 27.1353 30.7873 -30.8780 9.4006 3.6896 8.7997 28.7940 100.7851 7.5009 0.0000 1.6147 -1.1425 2.0673 28.9361 32.8623 0.0000 -24.3270 -34.7022 -12.2411 61.9952 -98.1760 -42.7195 -36.9517 -39.0501 -0.0000 -19.3913 -0.3066 8.5941 2.0509 33.1476 -0.0000 26.2537 1.1515 -34.2760 79.8361
 -0.0698 5.7281 -1.2781 57.7082 18.5873 38.5008 -144.5986 39.0383 -59.0413 1.7318 -0.0000 -0.0000 41.7333 -27.3165 53.2783 -74.0660 -0.0000 -0.0000 -99.2580 42.7051 57.7254 -9.2651 -0.0000 -0.0000 19.2273 -1.8361 22.3411 25.8073 -0.0000 -0.0000 -36.5153 27.1140 30.8045 -30.8362 9.4168 3.6710 8.6959 29.0228 100.7837 7.5257 0.0000 1.3421 -1.1125 2.0089 28.9849 32.8623 0.0000 -24.3270 -34.6712 -12.1816 62.0045 -98.1549 -42.7637 -36.8895 -39.0522 -0.0000 -19.4256 -0.3097 8.5795 2.0751 33.1476 -0.0000 26.2537 1.2118 -34.2651 79.8587
 -0.0681 5.7286 -1.2851 57.6565 18.5805 38.5327 -144.8006 39.0135 -58.8400 1.8291 0.0000 -0.0000 41.7088 -27.4223 53.5732 -73.6568 -0.0000 -0.0000 -99.2149 42.7315 57.6955 -9.2704 -0.0000 -0.0000 19.1758 -1.8706 22.3683 25.7241 0.0000 -0.0000 -36.4837 27.1147 30.7764 -30.8463 9.4525 3.6789 8.7006 29.0009 100.7550 7.5111 0.0000 1.1514 -1.1109 1.9973 29.0901 32.8623 0.0000 -24.3270 -34.6407 -12.1383 62.0157 -98.1254 -42.7964 -36.8298 -39.0598 -0.0000 -19.4113 -0.2921 8.5640 1.9609 33.1476 -0.0000 26.2537 1.2513 -34.2384 79.8737
 -0.0689 5.7253 -1.2957 57.6368 18.5623 38.5368 -144.8073 39.0190 -58.7996 1.8489 0.0000 -0.0000 41.7652 -27.4568 53.8145 -73.6451 0.0000 0.0000 -99.2306 42.7132 57.7154 -9.2548 0.0000 0.0000 19.1739 -1.9042 22.3648 25.7559 0.0000 0.0000 -36.4936 27.1446 30.7692 -30.8814 9.4785 3.7083 8.7355 29.0045 100.7124 7.5278 0.0000 0.9604 -1.0695 1.9125 29.2224 32.8623 0.0000 -24.3270 -34.6314 -12.1257 62.0364 -98.0814 -42.8227 -36.7918 -39.0727 -0.0000 -19.4590 -0.2952 8.5709 1.9797 33.1476 -0.0000 26.2537 1.2943 -34.2140 79.9058
 -0.0698 5.7216 -1.3053 57.5931 18.5474 38.5229 -144.7893 39.0022 -58.7986 1.8470 -0.0000 0.0000 41.8364 -27.4565 54.1220 -73.7337 -0.0000 -0.0000 -99.1752 42.6481 57.6854 -9.2165 0.0000 0.0000 19.1513 -1.9072 22.3707 25.7628 -0.0000 0.0000 -36.5103 27.1586 30.7850 -30.9399 9.4903 3.7327 8.7856 29.0339 100.6812 7.5318 0.0000 0.7062 -1.0246 1.8276 29.2827 32.8623 0.0000 -24.3270 -34.6091 -12.1215 62.0512 -98.0490 -42.8382 -36.7487 -39.0934 -0.0000 -19.4598 -0.2966 8.5909 1.9846 33.1476 -0.0000 26.2537 1.3276 -34.1924 79.9324
 -0.0738 5.7166 -1.3138 57.5141 18.5240 38.4778 -144.4923 39.0148 -59.0356 1.7427 0.0000 0.0000 41.9391 -27.3115 54.2622 -74.3414 0.0000 0.0000 -99.1002 42.5435 57.6478 -9.1713 0.0000 -0.0000 19.1627 -1.8961 22.3515 25.7475 -0.0000 -0.0000 -36.5093 27.1094 30.8262 -30.9756 9.5231 3.7895 8.8546 28.9919 100.6167 7.5325 0.0000 0.4993 -0.9932 1.7650 29.3719 32.8623 0.0000 -24.3270 -34.6627 -12.1619 62.0779 -98.0315 -42.7926 -36.8666 -39.1207 -0.0000 -19.4280 -0.3040 8.6281 2.0254 33.1476 -0.0000 26.2537 1.3557 -34.1258 79.9633
